<?xml version="1.0" encoding="UTF-8" standalone="no"?>
<svg
   width="64pt"
   height="64pt"
   viewBox="0 0 22.577778 22.577778"
   version="1.1"
   id="svg831"
   inkscape:version="1.1.2 (1:1.1+202202050950+0a00cf5339)"
   sodipodi:docname="1 - Delivery Box.svg"
   inkscape:export-filename="/media/taufikramadhan/Data/Tr Design Studio/Project Design/TR Creative Design/Icon Design/Project Hiring/Icon Icons/019 - Commerce And Shopping/5 - Send/1 - Delivery Box.png"
   inkscape:export-xdpi="576"
   inkscape:export-ydpi="576"
   xmlns:inkscape="http://www.inkscape.org/namespaces/inkscape"
   xmlns:sodipodi="http://sodipodi.sourceforge.net/DTD/sodipodi-0.dtd"
   xmlns="http://www.w3.org/2000/svg"
   xmlns:svg="http://www.w3.org/2000/svg"
   xmlns:rdf="http://www.w3.org/1999/02/22-rdf-syntax-ns#"
   xmlns:cc="http://creativecommons.org/ns#"
   xmlns:dc="http://purl.org/dc/elements/1.1/">
  <defs
     id="defs825">
    <pattern
       id="EMFhbasepattern"
       patternUnits="userSpaceOnUse"
       width="6"
       height="6"
       x="0"
       y="0" />
    <pattern
       id="EMFhbasepattern-9"
       patternUnits="userSpaceOnUse"
       width="6"
       height="6"
       x="0"
       y="0" />
    <pattern
       id="EMFhbasepattern-0"
       patternUnits="userSpaceOnUse"
       width="6"
       height="6"
       x="0"
       y="0" />
    <pattern
       id="EMFhbasepattern-7"
       patternUnits="userSpaceOnUse"
       width="6"
       height="6"
       x="0"
       y="0" />
    <pattern
       id="EMFhbasepattern-2"
       patternUnits="userSpaceOnUse"
       width="6"
       height="6"
       x="0"
       y="0" />
    <pattern
       id="EMFhbasepattern-98"
       patternUnits="userSpaceOnUse"
       width="6"
       height="6"
       x="0"
       y="0" />
    <pattern
       id="EMFhbasepattern-6"
       patternUnits="userSpaceOnUse"
       width="6"
       height="6"
       x="0"
       y="0" />
    <pattern
       id="EMFhbasepattern-01"
       patternUnits="userSpaceOnUse"
       width="6"
       height="6"
       x="0"
       y="0" />
    <pattern
       id="EMFhbasepattern-07"
       patternUnits="userSpaceOnUse"
       width="6"
       height="6"
       x="0"
       y="0" />
    <pattern
       id="EMFhbasepattern-8"
       patternUnits="userSpaceOnUse"
       width="6"
       height="6"
       x="0"
       y="0" />
    <pattern
       id="EMFhbasepattern-4"
       patternUnits="userSpaceOnUse"
       width="6"
       height="6"
       x="0"
       y="0" />
    <pattern
       id="EMFhbasepattern-40"
       patternUnits="userSpaceOnUse"
       width="6"
       height="6"
       x="0"
       y="0" />
    <pattern
       id="EMFhbasepattern-08"
       patternUnits="userSpaceOnUse"
       width="6"
       height="6"
       x="0"
       y="0" />
    <pattern
       id="EMFhbasepattern-04"
       patternUnits="userSpaceOnUse"
       width="6"
       height="6"
       x="0"
       y="0" />
    <pattern
       id="EMFhbasepattern-014"
       patternUnits="userSpaceOnUse"
       width="6"
       height="6"
       x="0"
       y="0" />
    <pattern
       id="EMFhbasepattern-27"
       patternUnits="userSpaceOnUse"
       width="6"
       height="6"
       x="0"
       y="0" />
    <pattern
       id="EMFhbasepattern-09"
       patternUnits="userSpaceOnUse"
       width="6"
       height="6"
       x="0"
       y="0" />
    <pattern
       id="EMFhbasepattern-5"
       patternUnits="userSpaceOnUse"
       width="6"
       height="6"
       x="0"
       y="0" />
    <pattern
       id="EMFhbasepattern-018"
       patternUnits="userSpaceOnUse"
       width="6"
       height="6"
       x="0"
       y="0" />
  </defs>
  <sodipodi:namedview
     id="base"
     pagecolor="#ffffff"
     bordercolor="#666666"
     borderopacity="1.0"
     inkscape:pageopacity="0.0"
     inkscape:pageshadow="2"
     inkscape:zoom="4.4249417"
     inkscape:cx="43.503398"
     inkscape:cy="42.712427"
     inkscape:document-units="pt"
     inkscape:current-layer="layer1"
     showgrid="false"
     units="pt"
     inkscape:window-width="1366"
     inkscape:window-height="705"
     inkscape:window-x="0"
     inkscape:window-y="31"
     inkscape:window-maximized="1"
     inkscape:pagecheckerboard="true"
     inkscape:showpageshadow="false"
     inkscape:object-paths="true"
     inkscape:snap-intersection-paths="true"
     inkscape:snap-smooth-nodes="true"
     inkscape:snap-midpoints="true"
     showguides="true"
     inkscape:snap-bbox="true"
     inkscape:bbox-nodes="true"
     inkscape:snap-nodes="false"
     inkscape:snap-global="true"
     inkscape:document-rotation="0">
    <inkscape:grid
       type="xygrid"
       id="grid1378" />
    <sodipodi:guide
       position="0.97013831,21.607643"
       orientation="78.000048,0"
       id="guide1380"
       inkscape:locked="false" />
    <sodipodi:guide
       position="0.97013831,0.97013129"
       orientation="0,78.000005"
       id="guide1382"
       inkscape:locked="false" />
    <sodipodi:guide
       position="21.607639,0.97013129"
       orientation="-78.000048,0"
       id="guide1384"
       inkscape:locked="false" />
    <sodipodi:guide
       position="21.607639,21.607643"
       orientation="0,-78.000005"
       id="guide1386"
       inkscape:locked="false" />
  </sodipodi:namedview>
  <metadata
     id="metadata828">
    <rdf:RDF>
      <cc:Work
         rdf:about="">
        <dc:format>image/svg+xml</dc:format>
        <dc:type
           rdf:resource="http://purl.org/dc/dcmitype/StillImage" />
      </cc:Work>
    </rdf:RDF>
  </metadata>
  <g
     inkscape:label="Icon"
     inkscape:groupmode="layer"
     id="layer1"
     transform="translate(0,-274.42223)">
    <g
       id="g381179"
       style="display:inline;stroke-width:0.794885"
       transform="matrix(1.2580441,0,0,1.2580441,77.385649,-38.902253)">
      <path
         style="color:#000000;clip-rule:evenodd;fill:#feae71;fill-rule:evenodd;stroke-width:0.794885;stroke-linecap:round;stroke-linejoin:round;stroke-miterlimit:1.5;-inkscape-stroke:none"
         d="m -58.625,252.4668 a 0.26460996,0.26460996 0 0 0 -0.263672,0.26562 v 8.73828 a 0.26460996,0.26460996 0 0 0 0.263672,0.26367 h 11.90625 a 0.26460996,0.26460996 0 0 0 0.265625,-0.26367 v -8.73828 a 0.26460996,0.26460996 0 0 0 -0.265625,-0.26562 z"
         id="path403784" />
      <path
         style="color:#000000;clip-rule:evenodd;fill:#feae72;fill-rule:evenodd;stroke-width:0.794885;stroke-linecap:round;stroke-linejoin:round;stroke-miterlimit:1.5;-inkscape-stroke:none"
         d="m -59.947266,261.73437 a 0.26460996,0.26460996 0 0 0 -0.265625,0.26368 v 3.96875 a 0.26460996,0.26460996 0 0 0 0.265625,0.26562 h 6.34961 a 0.26460996,0.26460996 0 0 0 0.265625,-0.26562 v -3.96875 a 0.26460996,0.26460996 0 0 0 -0.265625,-0.26368 z"
         id="path403822" />
      <path
         id="path337102"
         style="clip-rule:evenodd;fill:#fe9748;fill-opacity:1;fill-rule:evenodd;stroke-width:3.00429;stroke-linecap:round;stroke-linejoin:round;stroke-miterlimit:1.5"
         d="m -198.58203,-93.152344 c -1.45818,0.0032 -2.80262,0.837463 -3.45313,2.140625 l -3.98632,8.001953 c -0.30807,0.589191 -0.39844,1.242772 -0.39844,1.867188 v 2.990234 h -16.15039 c -6.6e-4,10e-7 -0.001,-10e-7 -0.002,0 v 7.869141 a 1.0001006,1.0001006 0 0 0 0.99805,0.996094 h 45 a 1.0001006,1.0001006 0 0 0 1.00391,-0.996094 v -22.869141 h -23.00391 -0.006 z"
         transform="matrix(0.26458334,0,0,0.26458334,0,280.06666)" />
      <path
         id="path298435"
         style="color:#000000;clip-rule:evenodd;fill:#fe9748;fill-opacity:1;fill-rule:evenodd;stroke-width:0.794885;stroke-linecap:round;stroke-linejoin:round;stroke-miterlimit:1.5;-inkscape-stroke:none"
         d="m -54.390479,264.89664 v 1.33572 h 0.792715 c 0.146925,5.6e-4 0.266174,-0.11868 0.265618,-0.26561 v -3.96876 c -5.9e-4,-0.14612 -0.119502,-0.2641 -0.265618,-0.26354 h -6.349484 c -0.146115,-5.6e-4 -0.265025,0.11742 -0.265615,0.26354 v 0.79479 h 3.718524 a 2.1038601,2.1038601 45 0 1 2.10386,2.10386 z"
         sodipodi:nodetypes="cccccccccc" />
      <path
         id="path329203"
         style="color:#000000;clip-rule:evenodd;fill:#fe9748;fill-opacity:1;fill-rule:evenodd;stroke-width:0.794885;stroke-linecap:round;stroke-linejoin:round;stroke-miterlimit:1.5;-inkscape-stroke:none"
         d="m -47.511312,255.81874 v 5.91571 h 0.792715 c 0.146121,5.5e-4 0.265033,-0.11743 0.265618,-0.26355 v -8.73849 c 5.29e-4,-0.14693 -0.11869,-0.26618 -0.265618,-0.26562 h -11.90625 c -0.146323,2.7e-4 -0.264623,0.1193 -0.264068,0.26562 v 0.79272 h 9.083993 a 2.2936095,2.2936095 0 0 1 2.29361,2.29361 z"
         sodipodi:nodetypes="cccccccccc" />
      <path
         style="color:#000000;clip-rule:evenodd;fill:#66342d;fill-rule:evenodd;stroke-width:0.794885;stroke-linecap:round;stroke-linejoin:round;stroke-miterlimit:1.5;-inkscape-stroke:none"
         d="m -53.861328,252.73828 v 1.58789 c 3.7e-5,0.20246 0.218157,0.32987 0.394531,0.23047 l 0.794922,-0.45508 0.794922,0.45508 c 0.176816,0.10164 0.397304,-0.0265 0.396484,-0.23047 v -1.58789 z"
         id="path9806"
         sodipodi:nodetypes="cccccccc" />
      <path
         id="path357186"
         style="color:#000000;clip-rule:evenodd;fill:#311a12;fill-opacity:1;fill-rule:evenodd;stroke-width:0.794885;stroke-linecap:round;stroke-linejoin:round;stroke-miterlimit:1.5;-inkscape-stroke:none"
         d="m -53.861312,252.7381 v 0.79478 h 1.585949 c 0.146175,-5.3e-4 0.265113,0.11737 0.265615,0.26355 v 0.68419 l 0.132811,0.076 c 0.176815,0.10164 0.397176,-0.0265 0.396356,-0.23048 v -1.58801 z"
         sodipodi:nodetypes="ccccccccc" />
      <path
         style="color:#000000;clip-rule:evenodd;fill:#fd913c;fill-rule:evenodd;stroke-width:0.794885;stroke-linecap:round;stroke-linejoin:round;stroke-miterlimit:1.5;-inkscape-stroke:none"
         d="m -46.45338,252.71974 c -0.0021,-0.0411 -0.01252,-0.0828 -0.03603,-0.12208 l -1.588712,-2.63477 c -0.04765,-0.0798 -0.133646,-0.1287 -0.226562,-0.12891 l -8.732422,-0.006 c -0.09292,2.1e-4 -0.178913,0.0491 -0.226563,0.12891 l -1.58789,2.63867 c -0.03175,0.0521 -0.0379,0.1094 -0.0379,0.16211 l 7.9e-4,0.24038 h 12.435547 z"
         id="path403796"
         sodipodi:nodetypes="ccccccccccc" />
      <path
         id="path354488"
         style="color:#000000;clip-rule:evenodd;fill:#f26a02;fill-opacity:1;fill-rule:evenodd;stroke-width:0.794885;stroke-linecap:round;stroke-linejoin:round;stroke-miterlimit:1.5;-inkscape-stroke:none"
         d="m -49.298541,251.93969 h -9.158348 l -0.394808,0.65578 c -0.03175,0.0521 -0.03772,0.10955 -0.03772,0.16226 l 5.3e-4,0.2403 h 12.435935 l -5.29e-4,-0.27854 c -0.0021,-0.0411 -0.01214,-0.0827 -0.03566,-0.12195 l -1.589051,-2.63447 c -0.04765,-0.0798 -0.133427,-0.12898 -0.226343,-0.12919 l -0.800995,-5.2e-4 0.508008,0.91583 a 0.80164388,0.80164388 120.49156 0 1 -0.701019,1.1905 z"
         sodipodi:nodetypes="cccccccccccc" />
      <path
         style="color:#000000;clip-rule:evenodd;fill:#311a12;fill-opacity:1;fill-rule:evenodd;stroke-width:0.794885;stroke-linecap:round;stroke-linejoin:round;stroke-miterlimit:1.5;-inkscape-stroke:none"
         d="m -57.566406,253.5332 a 0.2645835,0.2645835 0 0 0 -0.263672,0.26367 0.2645835,0.2645835 0 0 0 0.263672,0.26368 h 1.851562 a 0.2645835,0.2645835 0 0 0 0.265625,-0.26368 0.2645835,0.2645835 0 0 0 -0.265625,-0.26367 z"
         id="rect3003" />
      <path
         id="path3011"
         style="color:#000000;clip-rule:evenodd;fill:#5b2e28;fill-opacity:1;fill-rule:evenodd;stroke-width:3.00429;stroke-linecap:round;stroke-linejoin:round;stroke-miterlimit:1.5;-inkscape-stroke:none"
         d="m -219.14453,-109.28906 -1.20508,2 h 42.50391 l -1.19141,-2 z"
         transform="matrix(0.26458334,0,0,0.26458334,0,280.06666)" />
      <path
         style="color:#000000;clip-rule:evenodd;fill:#9a605a;fill-rule:evenodd;stroke-width:0.794885;stroke-linecap:round;stroke-linejoin:round;stroke-miterlimit:1.5;-inkscape-stroke:none"
         d="m -53.595703,249.83043 -0.265625,3.16762 2.378906,-0.002 -0.263672,-3.16762 z"
         id="path403810"
         sodipodi:nodetypes="ccccc" />
      <path
         style="color:#000000;clip-rule:evenodd;fill:#66342d;fill-rule:evenodd;stroke-width:0.794885;stroke-linecap:round;stroke-linejoin:round;stroke-miterlimit:1.5;-inkscape-stroke:none"
         d="m -57.300781,261.73437 a 0.26460996,0.26460996 0 0 0 -0.265625,0.26368 v 1.32422 a 0.26460996,0.26460996 0 0 0 0.382812,0.23632 l 0.41211,-0.20507 0.410156,0.20507 a 0.26460996,0.26460996 0 0 0 0.382812,-0.23632 v -1.32422 a 0.26460996,0.26460996 0 0 0 -0.265625,-0.26368 z"
         id="path403840" />
      <path
         style="color:#000000;clip-rule:evenodd;fill:#fd913c;fill-rule:evenodd;stroke-width:0.794885;stroke-linecap:round;stroke-linejoin:round;stroke-miterlimit:1.5;-inkscape-stroke:none"
         d="m -53.332031,261.99805 v -1.58594 c 5.68e-4,-0.14694 -0.118689,-0.26619 -0.265625,-0.26563 h -5.291016 c -0.08891,1.1e-4 -0.171824,0.0449 -0.220703,0.11914 l -1.058594,1.58594 c -0.0309,0.046 -0.04508,0.0962 -0.04537,0.14517 l 4.48e-4,0.26694 h 6.88086 z"
         id="path403846"
         sodipodi:nodetypes="cccccccccc" />
      <path
         id="path307527"
         style="color:#000000;clip-rule:evenodd;fill:#f26a02;fill-opacity:1;fill-rule:evenodd;stroke-width:0.794885;stroke-linecap:round;stroke-linejoin:round;stroke-miterlimit:1.5;-inkscape-stroke:none"
         d="m -55.259199,261.20528 h -4.477208 l -0.431498,0.64647 c -0.0309,0.046 -0.04519,0.0962 -0.04547,0.14521 l 5.16e-4,0.26665 h 6.880717 v -0.26562 -1.58594 c 5.66e-4,-0.14694 -0.118681,-0.26618 -0.265618,-0.26562 h -0.792719 v 0.19013 a 0.86872008,0.86872008 0 0 1 -0.86872,0.86872 z"
         sodipodi:nodetypes="ccccccccccc" />
      <path
         style="color:#000000;clip-rule:evenodd;fill:#feae72;fill-rule:evenodd;stroke-width:0.794885;stroke-linecap:round;stroke-linejoin:round;stroke-miterlimit:1.5;-inkscape-stroke:none"
         d="m -53.591797,258.29492 a 0.26460996,0.26460996 0 0 0 -0.265625,0.26367 v 7.40821 a 0.26460996,0.26460996 0 0 0 0.265625,0.26562 h 8.460938 a 0.26460996,0.26460996 0 0 0 0.265625,-0.26562 v -7.40821 a 0.26460996,0.26460996 0 0 0 -0.265625,-0.26367 z"
         id="path403816" />
      <path
         id="path318884"
         style="color:#000000;clip-rule:evenodd;fill:#311a12;fill-opacity:1;fill-rule:evenodd;stroke-width:0.794885;stroke-linecap:round;stroke-linejoin:round;stroke-miterlimit:1.5;-inkscape-stroke:none"
         d="m -57.566514,261.99799 v 0.79479 h 0.793234 c 0.14612,-5.6e-4 0.265032,0.11743 0.265616,0.26355 v 0.42943 l 0.146245,0.0729 c 0.175732,0.0878 0.38253,-0.0397 0.382921,-0.23616 v -1.32447 z"
         sodipodi:nodetypes="ccccccccc" />
      <path
         id="path218061"
         style="color:#000000;clip-rule:evenodd;fill:#fe9748;fill-opacity:1;fill-rule:evenodd;stroke-width:0.794885;stroke-linecap:round;stroke-linejoin:round;stroke-miterlimit:1.5;-inkscape-stroke:none"
         d="m -53.591562,258.29486 c -0.14612,-5.6e-4 -0.265034,0.11743 -0.265618,0.26355 v 0.79479 h 5.981232 a 1.9521356,1.9521356 45 0 1 1.952136,1.95214 v 4.92702 h 0.792715 c 0.146929,5.6e-4 0.26618,-0.11869 0.265618,-0.26562 v -7.40833 c -5.84e-4,-0.14612 -0.119498,-0.26411 -0.265618,-0.26355 z"
         sodipodi:nodetypes="cccccccccc" />
      <path
         style="color:#000000;clip-rule:evenodd;fill:#66342d;fill-rule:evenodd;stroke-width:0.794885;stroke-linecap:round;stroke-linejoin:round;stroke-miterlimit:1.5;-inkscape-stroke:none"
         d="m -50.421875,258.82422 v 1.52734 c 0.0013,0.20372 0.222693,0.3296 0.398438,0.22656 l 0.660156,-0.38867 0.658203,0.38867 c 0.175744,0.10304 0.39712,-0.0228 0.398437,-0.22656 v -1.52734 z"
         id="path403828"
         sodipodi:nodetypes="cccccccc" />
      <path
         style="color:#000000;clip-rule:evenodd;fill:#fd913c;fill-opacity:1;fill-rule:evenodd;stroke-width:0.794885;stroke-linecap:round;stroke-linejoin:round;stroke-miterlimit:1.5;-inkscape-stroke:none"
         d="m -44.86637,258.55466 c -7.03e-4,-0.0376 -0.0096,-0.0761 -0.02816,-0.11325 l -1.058594,-2.11719 c -0.04471,-0.0896 -0.136178,-0.14632 -0.236328,-0.14649 h -6.349609 c -0.100151,1.7e-4 -0.191623,0.0569 -0.236329,0.14649 l -1.054207,2.11719 c -0.0212,0.0425 -0.03009,0.0867 -0.0286,0.12948 l 7.76e-4,0.25333 h 8.992188 z"
         id="path403834"
         sodipodi:nodetypes="ccccccccccc" />
      <path
         id="path218084"
         style="color:#000000;clip-rule:evenodd;fill:#f26a02;fill-opacity:1;fill-rule:evenodd;stroke-width:0.794885;stroke-linecap:round;stroke-linejoin:round;stroke-miterlimit:1.5;-inkscape-stroke:none"
         d="m -47.897792,257.7657 h -5.595516 l -0.336412,0.67592 c -0.02119,0.0425 -0.02991,0.0864 -0.02842,0.12919 l 0.0011,0.25322 h 8.991701 l -0.0011,-0.26924 c -7.94e-4,-0.0376 -0.0093,-0.076 -0.02791,-0.11317 l -1.058849,-2.11718 c -0.04471,-0.0896 -0.136012,-0.14659 -0.236162,-0.14676 h -0.895622 l 0.09774,0.24557 a 0.980029,0.980029 124.14808 0 1 -0.910552,1.34245 z"
         sodipodi:nodetypes="cccccccccccc" />
      <path
         style="color:#000000;clip-rule:evenodd;fill:#ececec;fill-rule:evenodd;stroke-width:0.794885;stroke-linecap:round;stroke-linejoin:round;stroke-miterlimit:1.5;-inkscape-stroke:none"
         d="m -52.539062,259.35352 a 0.26460996,0.26460996 0 0 0 -0.263672,0.26367 v 1.05859 a 0.26460996,0.26460996 0 0 0 0.263672,0.26563 h 1.058593 a 0.26460996,0.26460996 0 0 0 0.263672,-0.26563 v -1.05859 a 0.26460996,0.26460996 0 0 0 -0.263672,-0.26367 z"
         id="path403852" />
      <path
         style="color:#000000;clip-rule:evenodd;fill:#311a12;fill-opacity:1;fill-rule:evenodd;stroke-width:0.794885;stroke-linecap:round;stroke-linejoin:round;stroke-miterlimit:1.5;-inkscape-stroke:none"
         d="m -58.888672,264.11523 a 0.2645835,0.2645835 0 0 0 -0.265625,0.26563 v 0.5293 a 0.2645835,0.2645835 0 0 0 0.265625,0.26367 0.2645835,0.2645835 0 0 0 0.263672,-0.26367 v -0.5293 a 0.2645835,0.2645835 0 0 0 -0.263672,-0.26563 z"
         id="rect3025" />
      <path
         id="path10010"
         style="color:#000000;clip-rule:evenodd;fill:#5b2e28;fill-opacity:1;fill-rule:evenodd;stroke-width:3.00429;stroke-linecap:round;stroke-linejoin:round;stroke-miterlimit:1.5;-inkscape-stroke:none"
         d="m -201.18359,-86.287109 -0.9961,2 h 31.22266 l -1,-2 z"
         transform="matrix(0.26458334,0,0,0.26458334,0,280.06666)" />
      <path
         style="color:#000000;clip-rule:evenodd;fill:#9a605a;fill-rule:evenodd;stroke-width:0.794885;stroke-linecap:round;stroke-linejoin:round;stroke-miterlimit:1.5;-inkscape-stroke:none"
         d="m -48.308594,258.82403 -0.263672,-2.6463 h -1.583984 l -0.263672,2.6463"
         id="path403866"
         sodipodi:nodetypes="cccc" />
      <path
         style="color:#000000;clip-rule:evenodd;fill:#66342d;fill-rule:evenodd;stroke-width:0.794885;stroke-linecap:round;stroke-linejoin:round;stroke-miterlimit:1.5;-inkscape-stroke:none"
         d="m -48.306641,266.23242 v -1.32226 c 5.65e-4,-0.14617 -0.117499,-0.26511 -0.263671,-0.26563 h -1.582032 c -0.146936,-5.7e-4 -0.266193,0.11869 -0.265625,0.26563 v 1.32226"
         id="path403872"
         sodipodi:nodetypes="cccccc" />
      <path
         style="color:#000000;fill:#66342d;stroke-width:0.794885;stroke-linecap:round;stroke-linejoin:round;stroke-miterlimit:1.5;-inkscape-stroke:none"
         d="m -51.480469,264.38086 a 0.2645835,0.2645835 0 0 0 -0.265625,0.26367 v 0.26563 a 0.2645835,0.2645835 0 0 0 0.265625,0.26367 0.2645835,0.2645835 0 0 0 0.263672,-0.26367 v -0.26563 a 0.2645835,0.2645835 0 0 0 -0.263672,-0.26367 z"
         id="path4319" />
      <path
         style="color:#000000;fill:#311a12;fill-opacity:1;stroke-width:0.794885;stroke-linecap:round;stroke-linejoin:round;stroke-miterlimit:1.5;-inkscape-stroke:none"
         d="m -52.539062,263.85156 a 0.2645835,0.2645835 0 0 0 -0.263672,0.26367 v 0.79493 a 0.2645835,0.2645835 0 0 0 0.263672,0.26367 0.2645835,0.2645835 0 0 0 0.263671,-0.26367 v -0.79493 a 0.2645835,0.2645835 0 0 0 -0.263671,-0.26367 z"
         id="path4647" />
      <path
         style="color:#000000;clip-rule:evenodd;fill:#66342d;fill-rule:evenodd;stroke-width:0.794885;stroke-linecap:round;stroke-linejoin:round;stroke-miterlimit:1.5;-inkscape-stroke:none"
         d="m -57.830078,264.38086 a 0.2645835,0.2645835 0 0 0 -0.265625,0.26367 v 0.26563 a 0.2645835,0.2645835 0 0 0 0.265625,0.26367 0.2645835,0.2645835 0 0 0 0.263672,-0.26367 v -0.26563 a 0.2645835,0.2645835 0 0 0 -0.263672,-0.26367 z"
         id="path17939" />
      <path
         id="path34103"
         style="fill:#9a605a;fill-opacity:1;stroke:none;stroke-width:1.58977;stroke-linecap:round;stroke-linejoin:round;stroke-miterlimit:1.5;stop-color:#000000"
         d="m -215.31055,-75.289062 c -0.70314,2.239873 -1.46853,4.460299 -2.21093,6.6875 -0.0332,0.100186 -0.0504,0.204999 -0.0508,0.310546 l -0.002,1.003907 h 6.00195 V -68.125 c 0.80697,-2.378515 1.65393,-4.739022 2.30273,-7.164109 z"
         transform="matrix(0.26458334,0,0,0.26458334,0,280.06666)"
         sodipodi:nodetypes="cccccccc" />
      <path
         style="color:#000000;clip-rule:evenodd;fill:#66342d;fill-rule:evenodd;stroke-width:0.794885;stroke-linecap:round;stroke-linejoin:round;stroke-miterlimit:1.5;-inkscape-stroke:none"
         d="m -57.566406,254.58984 a 0.2645835,0.2645835 0 0 0 -0.263672,0.26563 0.2645835,0.2645835 0 0 0 0.263672,0.26367 h 1.322265 a 0.2645835,0.2645835 0 0 0 0.265625,-0.26367 0.2645835,0.2645835 0 0 0 -0.265625,-0.26563 z"
         id="path28349" />
      <path
         id="path403900"
         style="color:#000000;clip-rule:evenodd;fill:#ececec;fill-rule:evenodd;stroke-width:3.00429;stroke-linecap:round;stroke-linejoin:round;stroke-miterlimit:1.5;-inkscape-stroke:none"
         d="m -188.57031,-100.2832 c -0.55226,-0.002 -1.0017,0.443827 -1.00391,0.996091 v 4 c 0.001,0.553029 0.45088,1.000155 1.00391,0.998047 2.66471,0 5.32943,0 7.99414,0 0.55302,0.0021 1.00277,-0.445022 1.0039,-0.998047 v -4 c -0.002,-0.55226 -0.45164,-0.998191 -1.0039,-0.996091 -2.66471,0 -5.32943,0 -7.99414,0 z"
         transform="matrix(0.26458334,0,0,0.26458334,0,280.06666)"
         sodipodi:nodetypes="ccccccccc" />
      <path
         id="path24273"
         style="color:#000000;fill:#cccccc;fill-opacity:1;stroke-width:3.00429;stroke-linecap:round;stroke-linejoin:round;stroke-miterlimit:1.5;-inkscape-stroke:none"
         d="m -185.57617,-100.2832 v 5.994138 h 2.00195 v -5.994138 z"
         transform="matrix(0.26458334,0,0,0.26458334,0,280.06666)" />
      <path
         id="path247043"
         style="color:#000000;clip-rule:evenodd;fill:#cccccc;fill-opacity:1;fill-rule:evenodd;stroke-width:0.794885;stroke-linecap:round;stroke-linejoin:round;stroke-miterlimit:1.5;-inkscape-stroke:none"
         d="m -52.538915,259.35371 a 0.26460996,0.26460996 0 0 0 -0.264064,0.26355 v 0.26562 h 0.793231 a 0.26460996,0.26460996 0 0 1 0.263552,0.26355 v 0.79478 h 0.265615 a 0.26460996,0.26460996 0 0 0 0.263551,-0.26561 v -1.05834 a 0.26460996,0.26460996 0 0 0 -0.263551,-0.26355 z" />
      <path
         id="path253388"
         style="color:#000000;clip-rule:evenodd;fill:#cccccc;fill-opacity:1;fill-rule:evenodd;stroke-width:0.794885;stroke-linecap:round;stroke-linejoin:round;stroke-miterlimit:1.5;-inkscape-stroke:none"
         d="m -49.892562,253.5334 c -0.146119,-5.4e-4 -0.265033,0.11742 -0.265618,0.26355 v 0.26561 h 1.851567 c 0.146119,-5.6e-4 0.265089,0.11743 0.265615,0.26355 v 0.79324 h 0.263552 c 0.146317,5.4e-4 0.265316,-0.11775 0.265615,-0.26407 v -1.05833 c -5.26e-4,-0.14613 -0.119496,-0.26411 -0.265615,-0.26355 z" />
      <path
         id="path277598"
         style="color:#000000;clip-rule:evenodd;fill:#311a12;fill-opacity:1;fill-rule:evenodd;stroke-width:0.794885;stroke-linecap:round;stroke-linejoin:round;stroke-miterlimit:1.5;-inkscape-stroke:none"
         d="m -50.152494,264.64435 c -0.146937,-5.9e-4 -0.266187,0.11867 -0.265618,0.26561 v 0.26355 h 1.318781 c 0.146174,5.3e-4 0.264115,0.11945 0.263551,0.26562 v 0.79323 h 0.529167 v -1.3224 c 5.29e-4,-0.14617 -0.117377,-0.26509 -0.263551,-0.26561 z" />
      <path
         id="path290734"
         style="color:#000000;clip-rule:evenodd;fill:#311a12;fill-opacity:1;fill-rule:evenodd;stroke-width:0.794885;stroke-linecap:round;stroke-linejoin:round;stroke-miterlimit:1.5;-inkscape-stroke:none"
         d="m -50.421729,258.82403 v 0.52917 h 0.83874 a 0.74720867,0.74720867 45 0 1 0.747209,0.74721 v 0.40052 l 0.130742,0.077 c 0.175744,0.10304 0.397108,-0.0226 0.398425,-0.22635 v -1.52755 z" />
      <path
         id="path294271"
         style="color:#000000;clip-rule:evenodd;fill:#66342d;fill-opacity:1;fill-rule:evenodd;stroke-width:0.794885;stroke-linecap:round;stroke-linejoin:round;stroke-miterlimit:1.5;-inkscape-stroke:none"
         d="m -50.156114,256.17768 -0.05271,0.52917 h 0.268545 a 0.92656914,0.92656914 42.156453 0 1 0.922008,0.83475 l 0.127712,1.28243 h 0.581877 l -0.263552,-2.64635 z" />
      <path
         id="path324425"
         style="fill:#66342d;fill-opacity:1;stroke:none;stroke-width:0.420627;stroke-linecap:round;stroke-linejoin:round;stroke-miterlimit:1.5;stop-color:#000000"
         d="m -56.967585,260.14643 c -0.05551,0.17684 -0.112683,0.35305 -0.170531,0.52917 h 0.272517 c 0.53417,0 0.85436,0.41838 0.687334,0.92569 -0.07285,0.22127 -0.148403,0.44174 -0.223979,0.66232 h 0.423746 v -0.22169 c 0.213511,-0.62932 0.437605,-1.25386 0.609267,-1.89549 z" />
      <path
         id="path362767"
         style="color:#000000;clip-rule:evenodd;fill:#66342d;fill-opacity:1;fill-rule:evenodd;stroke-width:0.794885;stroke-linecap:round;stroke-linejoin:round;stroke-miterlimit:1.5;-inkscape-stroke:none"
         d="m -51.746196,249.82819 -1.849501,0.002 -0.04444,0.52865 0.462543,-6.8e-4 a 0.97899484,0.97899484 42.579449 0 1 0.977057,0.89781 l 0.144801,1.73999 0.57309,-5.3e-4 z" />
    </g>
  </g>
</svg>
