<?xml version="1.0" encoding="UTF-8" standalone="no"?>
<svg
   width="64pt"
   height="64pt"
   viewBox="0 0 22.577778 22.577778"
   version="1.1"
   id="svg831"
   inkscape:version="1.1.2 (1:1.1+202202050950+0a00cf5339)"
   sodipodi:docname="4 - Warehouse.svg"
   inkscape:export-filename="/media/taufikramadhan/Data/Tr Design Studio/Project Design/TR Creative Design/Icon Design/Project Hiring/Icon Icons/019 - Commerce And Shopping/5 - Send/4 - Warehouse.png"
   inkscape:export-xdpi="576"
   inkscape:export-ydpi="576"
   xmlns:inkscape="http://www.inkscape.org/namespaces/inkscape"
   xmlns:sodipodi="http://sodipodi.sourceforge.net/DTD/sodipodi-0.dtd"
   xmlns="http://www.w3.org/2000/svg"
   xmlns:svg="http://www.w3.org/2000/svg"
   xmlns:rdf="http://www.w3.org/1999/02/22-rdf-syntax-ns#"
   xmlns:cc="http://creativecommons.org/ns#"
   xmlns:dc="http://purl.org/dc/elements/1.1/">
  <defs
     id="defs825">
    <pattern
       id="EMFhbasepattern"
       patternUnits="userSpaceOnUse"
       width="6"
       height="6"
       x="0"
       y="0" />
    <pattern
       id="EMFhbasepattern-9"
       patternUnits="userSpaceOnUse"
       width="6"
       height="6"
       x="0"
       y="0" />
    <pattern
       id="EMFhbasepattern-0"
       patternUnits="userSpaceOnUse"
       width="6"
       height="6"
       x="0"
       y="0" />
    <pattern
       id="EMFhbasepattern-7"
       patternUnits="userSpaceOnUse"
       width="6"
       height="6"
       x="0"
       y="0" />
    <pattern
       id="EMFhbasepattern-2"
       patternUnits="userSpaceOnUse"
       width="6"
       height="6"
       x="0"
       y="0" />
    <pattern
       id="EMFhbasepattern-98"
       patternUnits="userSpaceOnUse"
       width="6"
       height="6"
       x="0"
       y="0" />
    <pattern
       id="EMFhbasepattern-6"
       patternUnits="userSpaceOnUse"
       width="6"
       height="6"
       x="0"
       y="0" />
    <pattern
       id="EMFhbasepattern-01"
       patternUnits="userSpaceOnUse"
       width="6"
       height="6"
       x="0"
       y="0" />
    <pattern
       id="EMFhbasepattern-07"
       patternUnits="userSpaceOnUse"
       width="6"
       height="6"
       x="0"
       y="0" />
    <pattern
       id="EMFhbasepattern-8"
       patternUnits="userSpaceOnUse"
       width="6"
       height="6"
       x="0"
       y="0" />
    <pattern
       id="EMFhbasepattern-4"
       patternUnits="userSpaceOnUse"
       width="6"
       height="6"
       x="0"
       y="0" />
    <pattern
       id="EMFhbasepattern-40"
       patternUnits="userSpaceOnUse"
       width="6"
       height="6"
       x="0"
       y="0" />
    <pattern
       id="EMFhbasepattern-08"
       patternUnits="userSpaceOnUse"
       width="6"
       height="6"
       x="0"
       y="0" />
    <pattern
       id="EMFhbasepattern-04"
       patternUnits="userSpaceOnUse"
       width="6"
       height="6"
       x="0"
       y="0" />
    <pattern
       id="EMFhbasepattern-014"
       patternUnits="userSpaceOnUse"
       width="6"
       height="6"
       x="0"
       y="0" />
    <pattern
       id="EMFhbasepattern-27"
       patternUnits="userSpaceOnUse"
       width="6"
       height="6"
       x="0"
       y="0" />
    <pattern
       id="EMFhbasepattern-09"
       patternUnits="userSpaceOnUse"
       width="6"
       height="6"
       x="0"
       y="0" />
    <pattern
       id="EMFhbasepattern-5"
       patternUnits="userSpaceOnUse"
       width="6"
       height="6"
       x="0"
       y="0" />
    <pattern
       id="EMFhbasepattern-018"
       patternUnits="userSpaceOnUse"
       width="6"
       height="6"
       x="0"
       y="0" />
  </defs>
  <sodipodi:namedview
     id="base"
     pagecolor="#ffffff"
     bordercolor="#666666"
     borderopacity="1.0"
     inkscape:pageopacity="0.0"
     inkscape:pageshadow="2"
     inkscape:zoom="4.4249417"
     inkscape:cx="41.01749"
     inkscape:cy="44.746352"
     inkscape:document-units="pt"
     inkscape:current-layer="layer1"
     showgrid="false"
     units="pt"
     inkscape:window-width="1366"
     inkscape:window-height="705"
     inkscape:window-x="0"
     inkscape:window-y="31"
     inkscape:window-maximized="1"
     inkscape:pagecheckerboard="true"
     inkscape:showpageshadow="false"
     inkscape:object-paths="true"
     inkscape:snap-intersection-paths="true"
     inkscape:snap-smooth-nodes="true"
     inkscape:snap-midpoints="true"
     showguides="true"
     inkscape:snap-bbox="true"
     inkscape:bbox-nodes="true"
     inkscape:snap-nodes="false"
     inkscape:snap-global="true"
     inkscape:document-rotation="0">
    <inkscape:grid
       type="xygrid"
       id="grid1378" />
    <sodipodi:guide
       position="0.97013831,21.607643"
       orientation="78.000048,0"
       id="guide1380"
       inkscape:locked="false" />
    <sodipodi:guide
       position="0.97013831,0.97013129"
       orientation="0,78.000005"
       id="guide1382"
       inkscape:locked="false" />
    <sodipodi:guide
       position="21.607639,0.97013129"
       orientation="-78.000048,0"
       id="guide1384"
       inkscape:locked="false" />
    <sodipodi:guide
       position="21.607639,21.607643"
       orientation="0,-78.000005"
       id="guide1386"
       inkscape:locked="false" />
  </sodipodi:namedview>
  <metadata
     id="metadata828">
    <rdf:RDF>
      <cc:Work
         rdf:about="">
        <dc:format>image/svg+xml</dc:format>
        <dc:type
           rdf:resource="http://purl.org/dc/dcmitype/StillImage" />
      </cc:Work>
    </rdf:RDF>
  </metadata>
  <g
     inkscape:label="Icon"
     inkscape:groupmode="layer"
     id="layer1"
     transform="translate(0,-274.42223)">
    <g
       id="g2422208"
       style="display:inline;stroke-width:0.794878"
       transform="matrix(1.2580543,0,0,1.2580543,-37.737143,-38.906242)">
      <path
         style="color:#000000;clip-rule:evenodd;fill:#d0e2ee;fill-rule:evenodd;stroke-width:0.794878;stroke-linecap:round;stroke-linejoin:round;stroke-miterlimit:1.5;-inkscape-stroke:none"
         d="m 31.03125,257.23633 c -0.146169,5.2e-4 -0.264231,0.11945 -0.263672,0.26562 v 4.23242 c -5.64e-4,0.14617 0.117499,0.26511 0.263672,0.26563 3.792318,0 7.584635,0 11.376953,0 v -4.49805 c 5.59e-4,-0.14617 -0.117503,-0.2651 -0.263672,-0.26562 z"
         id="path459382"
         sodipodi:nodetypes="cccccccc" />
      <path
         style="color:#000000;clip-rule:evenodd;fill:#000000;fill-rule:evenodd;stroke-width:0.794878;stroke-linecap:round;stroke-linejoin:round;stroke-miterlimit:1.5;-inkscape-stroke:none"
         d="m 31.03125,257.23633 a 0.2645835,0.2645835 0 0 0 -0.263672,0.26562 0.2645835,0.2645835 0 0 0 0.263672,0.26367 h 11.113281 a 0.2645835,0.2645835 0 0 0 0.263672,-0.26367 0.2645835,0.2645835 0 0 0 -0.263672,-0.26562 z"
         id="path459379" />
      <path
         id="path459373"
         style="color:#000000;fill:#3a4d5c;stroke-width:3.00427;stroke-linecap:round;stroke-linejoin:round;stroke-miterlimit:1.5;-inkscape-stroke:none"
         d="m 121.28516,-81.283203 v 11 h 34 v -11 z"
         transform="matrix(0.26458334,0,0,0.26458334,0,280.06666)" />
      <path
         id="path459367"
         style="color:#000000;fill:#fd913c;fill-opacity:1;stroke-width:3.00427;stroke-linecap:round;stroke-linejoin:round;stroke-miterlimit:1.5;-inkscape-stroke:none"
         d="m 130.23242,-79.289062 c -0.52844,0.02868 -0.94738,0.468716 -0.94531,1.003906 v 8.001953 h 8.99805 v -8.001953 c 0.002,-0.552454 -0.44363,-1.001941 -0.9961,-1.003906 h -7.00586 c -0.0173,6.1e-5 -0.0337,-9.26e-4 -0.0508,0 z"
         transform="matrix(0.26458334,0,0,0.26458334,0,280.06666)" />
      <path
         id="path459355"
         style="color:#000000;fill:#fd913c;fill-opacity:1;stroke-width:3.00427;stroke-linecap:round;stroke-linejoin:round;stroke-miterlimit:1.5;-inkscape-stroke:none"
         d="m 143.23828,-77.289062 c -0.53132,0.02504 -0.95518,0.465934 -0.95312,1.003906 v 6.001953 h 9 v -6.001953 c 0.002,-0.552454 -0.4456,-1.001941 -0.99805,-1.003906 h -6.99805 c -0.0173,-6.7e-5 -0.0336,-8.08e-4 -0.0508,0 z"
         transform="matrix(0.26458334,0,0,0.26458334,0,280.06666)" />
      <path
         id="path2298900"
         style="fill:#bb570f;fill-opacity:1;stroke-width:3.00427;stroke-linecap:round;stroke-linejoin:round;stroke-miterlimit:1.5"
         d="m 142.28516,-75.421875 v 5.138685 h 3.13867 v -3.011872 c -0.004,-1.160088 -0.96682,-2.122909 -2.12695,-2.126953 z"
         transform="matrix(0.26458334,0,0,0.26458334,0,280.06666)"
         sodipodi:nodetypes="cccccc" />
      <path
         id="path2299040"
         style="color:#000000;fill:#bb570f;fill-opacity:1;stroke-width:3.00427;stroke-linecap:round;stroke-linejoin:round;stroke-miterlimit:1.5;-inkscape-stroke:none"
         d="m 135.14844,-70.283203 h 3.13672 v -5.138632 l -0.9961,-4e-5 c -1.1627,-4.54e-4 -2.1365,0.963426 -2.14062,2.126953 z"
         transform="matrix(0.26458334,0,0,0.26458334,0,280.06666)"
         sodipodi:nodetypes="cccccc" />
      <path
         id="path459361"
         style="color:#000000;fill:#feae72;stroke-width:3.00427;stroke-linecap:round;stroke-linejoin:round;stroke-miterlimit:1.5;-inkscape-stroke:none"
         d="m 137.28906,-74.285156 c -0.55245,-0.0021 -1.00195,0.44364 -1.0039,0.996094 v 3.005859 h 8.00195 v -3.005859 c -0.002,-0.549582 -0.44847,-0.994167 -0.99805,-0.996094 z"
         transform="matrix(0.26458334,0,0,0.26458334,0,280.06666)" />
      <path
         id="path459349"
         style="color:#000000;fill:#fd913c;fill-opacity:1;stroke-width:3.00427;stroke-linecap:round;stroke-linejoin:round;stroke-miterlimit:1.5;-inkscape-stroke:none"
         d="m 122.28906,-74.285156 c -0.55245,-0.0021 -1.00195,0.44364 -1.0039,0.996094 v 3.005859 h 6 v -3.005859 c -0.002,-0.549582 -0.44652,-0.994167 -0.9961,-0.996094 z"
         transform="matrix(0.26458334,0,0,0.26458334,0,280.06666)" />
      <path
         id="path2291973"
         style="fill:#bb570f;fill-opacity:1;stroke-width:3.00427;stroke-linecap:round;stroke-linejoin:round;stroke-miterlimit:1.5"
         d="m 129.28711,-76.470703 v 6.18746 h 5.18164 v -3.994101 c 0.005,-1.195011 -0.9914,-2.19385 -2.18555,-2.193359 z"
         transform="matrix(0.26458334,0,0,0.26458334,0,280.06666)"
         sodipodi:nodetypes="cccccc" />
      <path
         id="path2292193"
         style="color:#000000;fill:#bb570f;fill-opacity:1;stroke-width:3.00427;stroke-linecap:round;stroke-linejoin:round;stroke-miterlimit:1.5;-inkscape-stroke:none"
         d="m 124.10352,-70.283255 h 3.18164 v -3.005819 c -0.002,-0.549582 -0.44652,-0.994167 -0.9961,-0.996094 l -2.18554,1.2e-5 z"
         transform="matrix(0.26458334,0,0,0.26458334,0,280.06666)"
         sodipodi:nodetypes="cccccc" />
      <path
         id="path459610"
         style="color:#000000;fill:#feae72;stroke-width:3.00427;stroke-linecap:round;stroke-linejoin:round;stroke-miterlimit:1.5;-inkscape-stroke:none"
         d="m 126.28906,-75.289062 c -0.55535,-0.0021 -1.00605,0.448542 -1.0039,1.003906 v 4.001953 h 8.00195 v -4.001953 c 0.002,-0.555364 -0.44856,-1.006023 -1.00391,-1.003906 z"
         transform="matrix(0.26458334,0,0,0.26458334,0,280.06666)" />
      <path
         id="path2304075"
         style="fill:#bb570f;fill-opacity:1;stroke-width:3.00427;stroke-linecap:round;stroke-linejoin:round;stroke-miterlimit:1.5"
         d="m 148.21289,-70.283203 h 3.07227 v -6.001966 c 0.002,-0.552454 -0.4456,-1.001941 -0.99805,-1.003906 l -0.51758,1.3e-5 c -0.88387,0.232547 -1.55328,1.042921 -1.55664,1.992187 z"
         transform="matrix(0.26458334,0,0,0.26458334,0,280.06666)"
         sodipodi:nodetypes="ccccccc" />
      <path
         id="path459343"
         style="color:#000000;fill:#feae72;stroke-width:3.00427;stroke-linecap:round;stroke-linejoin:round;stroke-miterlimit:1.5;-inkscape-stroke:none"
         d="m 150.23633,-76.285156 c -0.52863,0.02477 -0.95123,0.460905 -0.95313,0.996094 v 5.005859 h 6.00196 v -5.005859 c -0.002,-0.549571 -0.44653,-0.994148 -0.9961,-0.996094 h -4.00195 c -0.0173,-6.7e-5 -0.0337,-7.99e-4 -0.0508,0 z"
         transform="matrix(0.26458334,0,0,0.26458334,0,280.06666)" />
      <path
         style="color:#000000;fill:#143441;stroke-width:0.794878;stroke-linecap:round;stroke-linejoin:round;stroke-miterlimit:1.5;-inkscape-stroke:none"
         d="m 32.089844,258.29492 a 0.2645835,0.2645835 0 0 0 -0.263672,0.26563 0.2645835,0.2645835 0 0 0 0.263672,0.26367 h 8.996093 a 0.2645835,0.2645835 0 0 0 0.265625,-0.26367 0.2645835,0.2645835 0 0 0 -0.265625,-0.26563 z"
         id="path459340" />
      <path
         style="color:#000000;clip-rule:evenodd;fill:#a8c2e1;fill-rule:evenodd;stroke-width:0.794878;stroke-linecap:round;stroke-linejoin:round;stroke-miterlimit:1.5;-inkscape-stroke:none"
         d="m 42.408203,257.76562 h 4.234375 v 3.70508 h -4.234375 z"
         id="path459934" />
      <path
         style="color:#000000;clip-rule:evenodd;fill:#a8c2e1;fill-rule:evenodd;stroke-width:0.794878;stroke-linecap:round;stroke-linejoin:round;stroke-miterlimit:1.5;-inkscape-stroke:none"
         d="m 47.171875,262 v -4.49805 c 5.62e-4,-0.14693 -0.118693,-0.26618 -0.265625,-0.26562 h -4.761719 c -0.146169,5.2e-4 -0.264231,0.11945 -0.263672,0.26562 V 262 Z"
         id="path459328"
         sodipodi:nodetypes="ccccccc" />
      <path
         id="path2372106"
         style="color:#000000;clip-rule:evenodd;fill:#91a9d9;fill-opacity:1;fill-rule:evenodd;stroke-width:0.794878;stroke-linecap:round;stroke-linejoin:round;stroke-miterlimit:1.5;-inkscape-stroke:none"
         d="m 42.144716,257.23653 c -0.146169,5.2e-4 -0.264626,0.11945 -0.264068,0.26562 v 0.79271 h 4.496367 c 0.146933,-5.6e-4 0.266178,0.11869 0.265617,0.26562 v 3.43958 h 0.529167 v -4.49791 c 5.61e-4,-0.14693 -0.118684,-0.26618 -0.265618,-0.26562 z" />
      <path
         id="path459322"
         style="color:#000000;fill:#7d8e9e;stroke-width:3.00427;stroke-linecap:round;stroke-linejoin:round;stroke-miterlimit:1.5;-inkscape-stroke:none"
         d="m 162.2832,-81.283203 v 11 h 12.00391 v -11 z"
         transform="matrix(0.26458334,0,0,0.26458334,0,280.06666)"
         sodipodi:nodetypes="ccccc" />
      <path
         id="path2315769"
         style="color:#000000;fill:#5b6571;fill-opacity:1;stroke-width:0.794878;stroke-linecap:round;stroke-linejoin:round;stroke-miterlimit:1.5;-inkscape-stroke:none"
         d="m 42.937431,258.56048 v 0.79323 h 1.28809 c 0.541206,0 0.992985,0.43889 0.97994,0.97994 v 1.13725 h 0.908005 v -2.91042 z"
         sodipodi:nodetypes="ccsscccc" />
      <path
         id="path459319"
         style="color:#000000;fill:#143441;fill-opacity:1;stroke-width:3.00427;stroke-linecap:round;stroke-linejoin:round;stroke-miterlimit:1.5;-inkscape-stroke:none"
         d="m 162.2832,-78.285156 v 2 h 12.00391 v -2 z m 0,4 v 2 h 12.00391 v -2 z"
         transform="matrix(0.26458334,0,0,0.26458334,0,280.06666)" />
      <path
         style="color:#000000;fill:#4d545c;stroke-width:0.794878;stroke-linecap:round;stroke-linejoin:round;stroke-miterlimit:1.5;-inkscape-stroke:none"
         d="m 44.525391,261.84375 0.002,0.002 h -0.0039 z"
         id="path460036" />
      <path
         style="color:#000000;clip-rule:evenodd;fill:#4895ef;fill-rule:evenodd;stroke-width:0.794878;stroke-linecap:round;stroke-linejoin:round;stroke-miterlimit:1.5;-inkscape-stroke:none"
         d="m 30.768493,257.76562 h 11.376038 c 0.100148,-1.7e-4 0.191619,-0.0569 0.236328,-0.14648 l 1.587891,-3.17383 c 0.08776,-0.17577 -0.03987,-0.3825 -0.236328,-0.38281 H 33.148437 c -0.08854,-3.2e-4 -0.171375,0.0437 -0.220703,0.11719 l -2.115234,3.17578 c -0.03134,0.0476 -0.04498,0.0995 -0.04401,0.14982 z"
         id="path459304"
         sodipodi:nodetypes="cccccccccc" />
      <path
         id="path2386334"
         style="color:#000000;clip-rule:evenodd;fill:#4377d1;fill-opacity:1;fill-rule:evenodd;stroke-width:0.794878;stroke-linecap:round;stroke-linejoin:round;stroke-miterlimit:1.5;-inkscape-stroke:none"
         d="m 33.148366,254.06256 c -0.08854,-2.6e-4 -0.171331,0.0438 -0.22066,0.11731 l -0.274402,0.41186 h 9.491412 c 0.196458,2.6e-4 0.324437,0.20715 0.236677,0.38292 l -1.396815,2.79104 h 1.160138 c 0.100147,-1.6e-4 0.191452,-0.0572 0.236161,-0.14676 l 1.588016,-3.17345 c 0.08776,-0.17577 -0.04022,-0.38261 -0.236677,-0.38292 z" />
      <path
         id="path459298"
         style="color:#000000;clip-rule:evenodd;fill:#2c5eb5;fill-rule:evenodd;stroke-width:3.00427;stroke-linecap:round;stroke-linejoin:round;stroke-miterlimit:1.5;-inkscape-stroke:none"
         d="m 178.28262,-85.358765 c -0.0105,-0.146087 -0.0541,-0.293962 -0.13632,-0.43421 l -6.99804,-11.996093 c -0.17964,-0.306284 -0.5082,-0.494356 -0.86328,-0.494141 l -4.99787,6e-6 c -0.37679,-4.04e-4 -0.72183,0.210997 -0.89258,0.546875 l -6.00195,12.001953 c -0.0701,0.161283 -0.1037,0.328883 -0.1037,0.50976 v 0.9375 h 19.99374 z"
         transform="matrix(0.26458334,0,0,0.26458334,0,280.06666)"
         sodipodi:nodetypes="ccccccccccc" />
      <path
         style="color:#000000;fill:#a8c2e1;stroke-width:0.794878;stroke-linecap:round;stroke-linejoin:round;stroke-miterlimit:1.5;-inkscape-stroke:none"
         d="m 43.732422,256.17773 a 0.2645835,0.2645835 0 0 0 -0.265625,0.26563 0.2645835,0.2645835 0 0 0 0.265625,0.26367 h 1.58789 a 0.2645835,0.2645835 0 0 0 0.263672,-0.26367 0.2645835,0.2645835 0 0 0 -0.263672,-0.26563 z"
         id="path459295" />
      <path
         style="color:#000000;clip-rule:evenodd;fill:#143441;fill-rule:evenodd;stroke-width:0.794878;stroke-linecap:round;stroke-linejoin:round;stroke-miterlimit:1.5;-inkscape-stroke:none"
         d="m 42.9375,258.29492 a 0.2645835,0.2645835 0 0 0 -0.263672,0.26563 0.2645835,0.2645835 0 0 0 0.263672,0.26367 h 3.175781 a 0.2645835,0.2645835 0 0 0 0.263672,-0.26367 0.2645835,0.2645835 0 0 0 -0.263672,-0.26563 z"
         id="path459292" />
      <path
         id="path459283"
         style="color:#000000;fill:#2c5eb5;stroke-width:3.00427;stroke-linecap:round;stroke-linejoin:round;stroke-miterlimit:1.5;-inkscape-stroke:none"
         d="m 119.42188,-90.289062 -1.33204,2 h 19.19922 a 1.0000006,1.0000006 0 0 0 0.9961,-0.996094 1.0000006,1.0000006 0 0 0 -0.9961,-1.003906 z"
         transform="matrix(0.26458334,0,0,0.26458334,0,280.06666)" />
      <path
         style="color:#000000;fill:#2c5eb5;stroke-width:0.794878;stroke-linecap:round;stroke-linejoin:round;stroke-miterlimit:1.5;-inkscape-stroke:none"
         d="m 37.912109,256.17773 a 0.2645835,0.2645835 0 0 0 -0.265625,0.26563 0.2645835,0.2645835 0 0 0 0.265625,0.26367 h 3.439453 a 0.2645835,0.2645835 0 0 0 0.263672,-0.26367 0.2645835,0.2645835 0 0 0 -0.263672,-0.26563 z"
         id="path459280" />
      <path
         style="color:#000000;fill:#2c5eb5;stroke-width:0.794878;stroke-linecap:round;stroke-linejoin:round;stroke-miterlimit:1.5;-inkscape-stroke:none"
         d="m 35.794922,255.11914 a 0.2645835,0.2645835 0 0 0 -0.265625,0.26563 0.2645835,0.2645835 0 0 0 0.265625,0.26367 h 3.439453 a 0.2645835,0.2645835 0 0 0 0.263672,-0.26367 0.2645835,0.2645835 0 0 0 -0.263672,-0.26563 z"
         id="path459277" />
      <path
         id="path459310"
         style="color:#000000;fill:#143441;fill-opacity:1;stroke-width:3.00427;stroke-linecap:round;stroke-linejoin:round;stroke-miterlimit:1.5;-inkscape-stroke:none"
         d="m 168.28516,-71.287109 c -0.26616,4.8e-5 -0.52132,0.106188 -0.70899,0.294921 l -0.70898,0.708985 h 2.83789 l -0.71094,-0.708985 c -0.18767,-0.18873 -0.44282,-0.29487 -0.70898,-0.294921 z"
         transform="matrix(0.26458334,0,0,0.26458334,0,280.06666)"
         sodipodi:nodetypes="cccccc" />
      <path
         id="path2400069"
         style="color:#000000;clip-rule:evenodd;fill:#163f64;fill-opacity:1;fill-rule:evenodd;stroke-width:0.794878;stroke-linecap:round;stroke-linejoin:round;stroke-miterlimit:1.5;-inkscape-stroke:none"
         d="m 43.732216,254.06256 c -0.09969,-1.1e-4 -0.190984,0.0558 -0.236162,0.1447 l -0.192236,0.38447 h 1.221632 c 0.09395,-6e-5 0.18088,0.0497 0.228409,0.13074 l 1.775085,3.04323 h 0.641821 v -0.28371 c -0.0028,-0.0387 -0.01441,-0.0776 -0.03617,-0.11472 L 45.28303,254.1933 c -0.04753,-0.081 -0.134461,-0.1308 -0.22841,-0.13074 z" />
    </g>
  </g>
</svg>
