<?xml version="1.0" encoding="UTF-8" standalone="no"?>
<svg
   width="64pt"
   height="64pt"
   viewBox="0 0 22.577778 22.577778"
   version="1.1"
   id="svg831"
   inkscape:version="1.1.2 (1:1.1+202202050950+0a00cf5339)"
   sodipodi:docname="30 - Shipment.svg"
   inkscape:export-filename="/media/taufikramadhan/Data/Tr Design Studio/Project Design/TR Creative Design/Icon Design/Project Hiring/Icon Icons/019 - Commerce And Shopping/5 - Send/30 - Shipment.png"
   inkscape:export-xdpi="576"
   inkscape:export-ydpi="576"
   xmlns:inkscape="http://www.inkscape.org/namespaces/inkscape"
   xmlns:sodipodi="http://sodipodi.sourceforge.net/DTD/sodipodi-0.dtd"
   xmlns="http://www.w3.org/2000/svg"
   xmlns:svg="http://www.w3.org/2000/svg"
   xmlns:rdf="http://www.w3.org/1999/02/22-rdf-syntax-ns#"
   xmlns:cc="http://creativecommons.org/ns#"
   xmlns:dc="http://purl.org/dc/elements/1.1/">
  <defs
     id="defs825">
    <pattern
       id="EMFhbasepattern"
       patternUnits="userSpaceOnUse"
       width="6"
       height="6"
       x="0"
       y="0" />
    <pattern
       id="EMFhbasepattern-9"
       patternUnits="userSpaceOnUse"
       width="6"
       height="6"
       x="0"
       y="0" />
    <pattern
       id="EMFhbasepattern-0"
       patternUnits="userSpaceOnUse"
       width="6"
       height="6"
       x="0"
       y="0" />
    <pattern
       id="EMFhbasepattern-7"
       patternUnits="userSpaceOnUse"
       width="6"
       height="6"
       x="0"
       y="0" />
    <pattern
       id="EMFhbasepattern-2"
       patternUnits="userSpaceOnUse"
       width="6"
       height="6"
       x="0"
       y="0" />
    <pattern
       id="EMFhbasepattern-98"
       patternUnits="userSpaceOnUse"
       width="6"
       height="6"
       x="0"
       y="0" />
    <pattern
       id="EMFhbasepattern-6"
       patternUnits="userSpaceOnUse"
       width="6"
       height="6"
       x="0"
       y="0" />
    <pattern
       id="EMFhbasepattern-01"
       patternUnits="userSpaceOnUse"
       width="6"
       height="6"
       x="0"
       y="0" />
    <pattern
       id="EMFhbasepattern-07"
       patternUnits="userSpaceOnUse"
       width="6"
       height="6"
       x="0"
       y="0" />
    <pattern
       id="EMFhbasepattern-8"
       patternUnits="userSpaceOnUse"
       width="6"
       height="6"
       x="0"
       y="0" />
    <pattern
       id="EMFhbasepattern-4"
       patternUnits="userSpaceOnUse"
       width="6"
       height="6"
       x="0"
       y="0" />
    <pattern
       id="EMFhbasepattern-40"
       patternUnits="userSpaceOnUse"
       width="6"
       height="6"
       x="0"
       y="0" />
    <pattern
       id="EMFhbasepattern-08"
       patternUnits="userSpaceOnUse"
       width="6"
       height="6"
       x="0"
       y="0" />
    <pattern
       id="EMFhbasepattern-04"
       patternUnits="userSpaceOnUse"
       width="6"
       height="6"
       x="0"
       y="0" />
    <pattern
       id="EMFhbasepattern-014"
       patternUnits="userSpaceOnUse"
       width="6"
       height="6"
       x="0"
       y="0" />
    <pattern
       id="EMFhbasepattern-27"
       patternUnits="userSpaceOnUse"
       width="6"
       height="6"
       x="0"
       y="0" />
    <pattern
       id="EMFhbasepattern-09"
       patternUnits="userSpaceOnUse"
       width="6"
       height="6"
       x="0"
       y="0" />
    <pattern
       id="EMFhbasepattern-5"
       patternUnits="userSpaceOnUse"
       width="6"
       height="6"
       x="0"
       y="0" />
    <pattern
       id="EMFhbasepattern-018"
       patternUnits="userSpaceOnUse"
       width="6"
       height="6"
       x="0"
       y="0" />
  </defs>
  <sodipodi:namedview
     id="base"
     pagecolor="#ffffff"
     bordercolor="#666666"
     borderopacity="1.0"
     inkscape:pageopacity="0.0"
     inkscape:pageshadow="2"
     inkscape:zoom="4.4249417"
     inkscape:cx="41.243481"
     inkscape:cy="44.746352"
     inkscape:document-units="pt"
     inkscape:current-layer="layer1"
     showgrid="false"
     units="pt"
     inkscape:window-width="1366"
     inkscape:window-height="705"
     inkscape:window-x="0"
     inkscape:window-y="31"
     inkscape:window-maximized="1"
     inkscape:pagecheckerboard="true"
     inkscape:showpageshadow="false"
     inkscape:object-paths="true"
     inkscape:snap-intersection-paths="true"
     inkscape:snap-smooth-nodes="true"
     inkscape:snap-midpoints="true"
     showguides="true"
     inkscape:snap-bbox="true"
     inkscape:bbox-nodes="true"
     inkscape:snap-nodes="false"
     inkscape:snap-global="true"
     inkscape:document-rotation="0">
    <inkscape:grid
       type="xygrid"
       id="grid1378" />
    <sodipodi:guide
       position="0.97013831,21.607643"
       orientation="78.000048,0"
       id="guide1380"
       inkscape:locked="false" />
    <sodipodi:guide
       position="0.97013831,0.97013129"
       orientation="0,78.000005"
       id="guide1382"
       inkscape:locked="false" />
    <sodipodi:guide
       position="21.607639,0.97013129"
       orientation="-78.000048,0"
       id="guide1384"
       inkscape:locked="false" />
    <sodipodi:guide
       position="21.607639,21.607643"
       orientation="0,-78.000005"
       id="guide1386"
       inkscape:locked="false" />
  </sodipodi:namedview>
  <metadata
     id="metadata828">
    <rdf:RDF>
      <cc:Work
         rdf:about="">
        <dc:format>image/svg+xml</dc:format>
        <dc:type
           rdf:resource="http://purl.org/dc/dcmitype/StillImage" />
      </cc:Work>
    </rdf:RDF>
  </metadata>
  <g
     inkscape:label="Icon"
     inkscape:groupmode="layer"
     id="layer1"
     transform="translate(0,-274.42223)">
    <g
       id="g326843"
       style="display:inline;stroke-width:0.794878"
       transform="matrix(1.258055,0,0,1.258055,-114.486,-192.40261)">
      <path
         style="color:#000000;fill:#feae72;stroke-width:0.794878;stroke-linecap:round;stroke-linejoin:round;stroke-miterlimit:1.5;-inkscape-stroke:none"
         d="m 106.94531,375.69336 a 0.26460996,0.26460996 0 0 0 -0.22656,0.0215 l -2.64648,1.58594 a 0.26460996,0.26460996 0 0 0 -0.10547,0.33594 l 0.49023,1.10156 a 0.26460996,0.26460996 0 0 0 0.4043,0.10156 l 2.41992,-1.89648 a 0.26460996,0.26460996 0 0 0 0.0879,-0.29297 l -0.26367,-0.79297 a 0.26460996,0.26460996 0 0 0 -0.16016,-0.16406 z"
         id="path767901" />
      <path
         id="path251765"
         style="color:#000000;fill:#fd913c;fill-opacity:1;stroke-width:0.794878;stroke-linecap:round;stroke-linejoin:round;stroke-miterlimit:1.5;-inkscape-stroke:none"
         d="m 106.85395,375.67685 a 0.26460996,0.26460996 0 0 1 0.093,0.0165 0.26460996,0.26460996 0 0 1 0.15865,0.16382 l 0.0724,0.21652 -2.04742,1.22732 a 0.26460996,0.26460996 0 0 0 -0.10542,0.33589 l 0.35553,0.79789 -0.51728,0.40514 a 0.26460996,0.26460996 0 0 1 -0.40618,-0.1018 l -0.49041,-1.10123 a 0.26460996,0.26460996 0 0 1 0.10542,-0.33589 l 2.64635,-1.58595 a 0.26460996,0.26460996 0 0 1 0.13539,-0.0382 z" />
      <path
         style="color:#000000;fill:#fd913c;stroke-width:0.794878;stroke-linecap:round;stroke-linejoin:round;stroke-miterlimit:1.5;-inkscape-stroke:none"
         d="m 95.742187,379.64453 a 0.26460996,0.26460996 0 0 0 -0.263671,0.2793 l 0.263671,4.63086 a 0.26460996,0.26460996 0 0 0 0.263672,0.25 h 7.937501 a 0.26460996,0.26460996 0 0 0 0.26562,-0.25 l 0.26368,-4.63086 a 0.26460996,0.26460996 0 0 0 -0.26368,-0.2793 z"
         id="path767867" />
      <path
         style="color:#000000;fill:#feae72;stroke-width:0.794878;stroke-linecap:round;stroke-linejoin:round;stroke-miterlimit:1.5;-inkscape-stroke:none"
         d="m 93.003906,375.69336 a 0.26460996,0.26460996 0 0 0 -0.158203,0.16406 l -0.265625,0.79297 a 0.26460996,0.26460996 0 0 0 0.08789,0.29297 l 2.419922,1.89648 a 0.26460996,0.26460996 0 0 0 0.40625,-0.10156 l 0.490234,-1.10156 a 0.26460996,0.26460996 0 0 0 -0.105469,-0.33594 l -2.646484,-1.58594 a 0.26460996,0.26460996 0 0 0 -0.228516,-0.0215 z"
         id="path767873" />
      <path
         id="path242333"
         style="color:#000000;fill:#fd913c;fill-opacity:1;stroke-width:0.794878;stroke-linecap:round;stroke-linejoin:round;stroke-miterlimit:1.5;-inkscape-stroke:none"
         d="m 93.097162,375.67685 a 0.26460996,0.26460996 0 0 0 -0.09302,0.0165 0.26460996,0.26460996 0 0 0 -0.158647,0.16382 l -0.07235,0.21652 2.04742,1.22732 a 0.26460996,0.26460996 0 0 1 0.105421,0.33589 l -0.355534,0.79789 0.517282,0.40514 a 0.26460996,0.26460996 0 0 0 0.406177,-0.1018 l 0.490408,-1.10123 a 0.26460996,0.26460996 0 0 0 -0.10542,-0.33589 l -2.64635,-1.58595 a 0.26460996,0.26460996 0 0 0 -0.135392,-0.0382 z" />
      <path
         id="path253235"
         style="color:#000000;fill:#fd750d;fill-opacity:1;stroke-width:3.00426;stroke-linecap:round;stroke-linejoin:round;stroke-miterlimit:1.5;-inkscape-stroke:none"
         d="m 361.85938,376.35742 c -0.5728,0.001 -1.02737,0.48274 -0.9961,1.05469 l 0.16797,2.94531 h 21.04017 a 10.031217,10.031217 46.627791 0 1 10.01503,10.60089 l -0.22512,3.95771 c -0.0302,0.53155 -0.47152,0.94623 -1.00391,0.94336 h 2 c 0.53239,0.003 0.97371,-0.41181 1.00391,-0.94336 0.33202,-5.83464 0.66335,-11.66931 0.99609,-17.50391 0.0313,-0.57194 -0.42329,-1.05325 -0.99609,-1.05469 z"
         transform="matrix(0.26458334,0,0,0.26458334,0,280.06666)"
         sodipodi:nodetypes="ccccccccccc" />
      <path
         style="color:#000000;fill:#feae72;stroke-width:0.794878;stroke-linecap:round;stroke-linejoin:round;stroke-miterlimit:1.5;-inkscape-stroke:none"
         d="M 95.742187,377.26367 A 0.26460996,0.26460996 0 0 0 95.5,377.42187 l -1.058594,2.38086 a 0.26460996,0.26460996 0 0 0 0.242188,0.3711 h 10.583986 a 0.26460996,0.26460996 0 0 0 0.24023,-0.3711 l -1.05664,-2.38086 a 0.26460996,0.26460996 0 0 0 -0.24219,-0.1582 z"
         id="path767879" />
      <path
         style="color:#000000;fill:#66342d;stroke-width:0.794878;stroke-linecap:round;stroke-linejoin:round;stroke-miterlimit:1.5;-inkscape-stroke:none"
         d="m 99.265625,382.9668 a 0.26460996,0.26460996 0 0 0 -0.349609,0.25 v 1.32226 a 0.26460996,0.26460996 0 0 0 0.265625,0.26563 h 1.587889 a 0.26460996,0.26460996 0 0 0 0.26367,-0.26563 v -1.32226 a 0.26460996,0.26460996 0 0 0 -0.34765,-0.25 l -0.710941,0.23632 z"
         id="path767885" />
      <path
         style="color:#000000;fill:#66342d;fill-opacity:1;stroke-width:0.794878;stroke-linecap:round;stroke-linejoin:round;stroke-miterlimit:1.5;-inkscape-stroke:none"
         d="m 96.799563,383.34985 a 0.2645835,0.2645835 0 0 0 -0.263672,0.26368 0.2645835,0.2645835 0 0 0 0.263672,0.26562 0.2645835,0.2645835 0 0 0 0.265625,-0.26562 0.2645835,0.2645835 0 0 0 -0.265625,-0.26368 z"
         id="path240640" />
      <path
         style="color:#000000;fill:#4895ef;stroke-width:0.794878;stroke-linecap:round;stroke-linejoin:round;stroke-miterlimit:1.5;-inkscape-stroke:none"
         d="m 99.974609,371.83984 c -0.224732,0 -0.42205,0.1008 -0.58789,0.25196 -0.165841,0.15115 -0.302735,0.37188 -0.302735,0.63867 v 1.49414 h -0.361328 c -0.452822,0 -0.712663,0.5683 -0.417969,0.91211 l 1.0625,1.24023 c 0.316467,0.36921 0.900333,0.36921 1.216793,0 l 1.0625,-1.24023 c 0.29469,-0.3438 0.0329,-0.91211 -0.41992,-0.91211 h -0.36133 v -1.49414 c 0,-0.26678 -0.13689,-0.48752 -0.30273,-0.63867 -0.16584,-0.15116 -0.36316,-0.25196 -0.587891,-0.25196 z"
         id="path767893" />
      <path
         style="color:#000000;fill:#66342d;fill-opacity:1;stroke-width:0.794878;stroke-linecap:round;stroke-linejoin:round;stroke-miterlimit:1.5;-inkscape-stroke:none"
         d="m 97.592922,383.34985 a 0.2645835,0.2645835 0 0 0 -0.263672,0.26368 0.2645835,0.2645835 0 0 0 0.263672,0.26562 0.2645835,0.2645835 0 0 0 0.265625,-0.26562 0.2645835,0.2645835 0 0 0 -0.265625,-0.26368 z"
         id="path250697" />
      <path
         style="color:#000000;fill:#3a4d5c;stroke-width:0.794878;stroke-linecap:round;stroke-linejoin:round;stroke-miterlimit:1.5;-inkscape-stroke:none"
         d="m 92.699219,384.27539 c -0.435244,0 -0.792972,0.35773 -0.792969,0.79297 v 2.38281 c -3e-6,0.43525 0.357725,0.79297 0.792969,0.79297 h 13.494141 c 0.89961,0 1.85156,-0.81637 1.85156,-1.98437 0,-1.16801 -0.95195,-1.98438 -1.85156,-1.98438 z"
         id="path767907" />
      <path
         style="color:#000000;fill:#143441;stroke-width:0.794878;stroke-linecap:round;stroke-linejoin:round;stroke-miterlimit:1.5;-inkscape-stroke:none"
         d="m 103.67969,385.99414 a 0.2645835,0.2645835 0 0 0 -0.26563,0.26563 0.2645835,0.2645835 0 0 0 0.26563,0.26367 h 1.71875 a 0.2645835,0.2645835 0 0 0 0.26562,-0.26367 0.2645835,0.2645835 0 0 0 -0.26562,-0.26563 z"
         id="path220246" />
      <path
         style="color:#000000;fill:#143441;stroke-width:0.794878;stroke-linecap:round;stroke-linejoin:round;stroke-miterlimit:1.5;-inkscape-stroke:none"
         d="m 100.63672,385.99414 a 0.2645835,0.2645835 0 0 0 -0.26367,0.26563 0.2645835,0.2645835 0 0 0 0.26367,0.26367 h 1.7207 a 0.2645835,0.2645835 0 0 0 0.26367,-0.26367 0.2645835,0.2645835 0 0 0 -0.26367,-0.26563 z"
         id="path221615" />
      <path
         style="color:#000000;fill:#143441;stroke-width:0.794878;stroke-linecap:round;stroke-linejoin:round;stroke-miterlimit:1.5;-inkscape-stroke:none"
         d="m 97.59375,385.99414 a 0.2645835,0.2645835 0 0 0 -0.263672,0.26563 0.2645835,0.2645835 0 0 0 0.263672,0.26367 h 1.720703 a 0.2645835,0.2645835 0 0 0 0.263672,-0.26367 0.2645835,0.2645835 0 0 0 -0.263672,-0.26563 z"
         id="path221619" />
      <path
         style="color:#000000;fill:#143441;stroke-width:0.794878;stroke-linecap:round;stroke-linejoin:round;stroke-miterlimit:1.5;-inkscape-stroke:none"
         d="m 94.550781,385.99414 a 0.2645835,0.2645835 0 0 0 -0.263672,0.26563 0.2645835,0.2645835 0 0 0 0.263672,0.26367 h 1.720703 a 0.2645835,0.2645835 0 0 0 0.263672,-0.26367 0.2645835,0.2645835 0 0 0 -0.263672,-0.26563 z"
         id="path221623" />
      <path
         style="color:#000000;fill:#ececec;stroke-width:0.794878;stroke-linecap:round;stroke-linejoin:round;stroke-miterlimit:1.5;-inkscape-stroke:none"
         d="m 106.06055,385.33398 c -0.50831,0 -0.92579,0.41748 -0.92578,0.92579 -1e-5,0.5083 0.41747,0.92578 0.92578,0.92578 0.5083,0 0.92578,-0.41748 0.92578,-0.92578 0,-0.50831 -0.41748,-0.92579 -0.92578,-0.92579 z"
         id="path767929" />
      <path
         style="color:#000000;fill:#ececec;stroke-width:0.794878;stroke-linecap:round;stroke-linejoin:round;stroke-miterlimit:1.5;-inkscape-stroke:none"
         d="m 103.01758,385.33398 c -0.50831,0 -0.92578,0.41748 -0.92578,0.92579 10e-6,0.50829 0.41748,0.92578 0.92578,0.92578 0.5083,0 0.92578,-0.41748 0.92578,-0.92578 0,-0.5083 -0.41747,-0.92579 -0.92578,-0.92579 z"
         id="path767935" />
      <path
         style="color:#000000;fill:#ececec;stroke-width:0.794878;stroke-linecap:round;stroke-linejoin:round;stroke-miterlimit:1.5;-inkscape-stroke:none"
         d="m 99.974609,385.33398 c -0.508307,0 -0.925781,0.41748 -0.925781,0.92579 7e-6,0.5083 0.417481,0.92578 0.925781,0.92578 0.508301,0 0.925781,-0.41748 0.925781,-0.92578 0,-0.5083 -0.41747,-0.92579 -0.925781,-0.92579 z"
         id="path767941" />
      <path
         style="color:#000000;fill:#ececec;stroke-width:0.794878;stroke-linecap:round;stroke-linejoin:round;stroke-miterlimit:1.5;-inkscape-stroke:none"
         d="m 96.931641,385.33398 c -0.508308,0 -0.925782,0.41748 -0.925782,0.92579 7e-6,0.5083 0.417482,0.92578 0.925782,0.92578 0.5083,0 0.927728,-0.41748 0.927734,-0.92578 10e-7,-0.50831 -0.419427,-0.92579 -0.927734,-0.92579 z"
         id="path767947" />
      <path
         style="color:#000000;fill:#ececec;stroke-width:0.794878;stroke-linecap:round;stroke-linejoin:round;stroke-miterlimit:1.5;-inkscape-stroke:none"
         d="m 93.890625,385.33398 c -0.508307,0 -0.927734,0.41748 -0.927734,0.92579 7e-6,0.5083 0.419434,0.92578 0.927734,0.92578 0.5083,0 0.925776,-0.41748 0.925781,-0.92578 2e-6,-0.50831 -0.417474,-0.92579 -0.925781,-0.92579 z"
         id="path767953" />
      <path
         id="path259767"
         style="color:#000000;fill:#4377d1;fill-opacity:1;stroke-width:0.794878;stroke-linecap:round;stroke-linejoin:round;stroke-miterlimit:1.5;-inkscape-stroke:none"
         d="m 99.974783,371.83987 c -0.22474,0 -0.42224,0.10102 -0.58808,0.25218 -0.099,0.0902 -0.18747,0.20523 -0.24288,0.34003 0.094,-0.0402 0.1949,-0.063 0.30179,-0.063 0.22473,0 0.42172,0.10102 0.587557,0.25218 0.16584,0.15115 0.30282,0.37142 0.30282,0.6382 v 1.31831 a 0.26453794,0.26453794 45 0 0 0.26454,0.26454 h 0.0967 c 0.45282,0 0.71482,0.56829 0.42013,0.91209 l 0.52917,-0.61753 c 0.29469,-0.3438 0.0327,-0.91209 -0.42013,-0.91209 h -0.36122 v -1.49448 c 0,-0.26678 -0.13698,-0.48706 -0.30282,-0.63821 -0.16584,-0.15116 -0.36283,-0.25218 -0.587557,-0.25218 z"
         sodipodi:nodetypes="sscssscsccscsss" />
      <path
         id="path269269"
         style="color:#000000;fill:#a8c2e1;fill-opacity:1;stroke-width:0.794878;stroke-linecap:round;stroke-linejoin:round;stroke-miterlimit:1.5;-inkscape-stroke:none"
         d="m 93.866623,385.33414 c -0.381018,0.01 -0.708231,0.25421 -0.840774,0.59273 0.10428,-0.0409 0.217384,-0.0636 0.33538,-0.0636 0.508307,0 0.926045,0.41721 0.926042,0.92552 -3e-6,0.11742 -0.02252,0.23013 -0.06305,0.33383 0.345223,-0.13491 0.592206,-0.4721 0.592212,-0.86299 2e-6,-0.50832 -0.417735,-0.92553 -0.926042,-0.92553 -0.0079,0 -0.01587,-2e-4 -0.02379,0 z" />
      <path
         id="path295496"
         style="color:#000000;fill:#a8c2e1;fill-opacity:1;stroke-width:0.794878;stroke-linecap:round;stroke-linejoin:round;stroke-miterlimit:1.5;-inkscape-stroke:none"
         d="m 96.909565,385.33411 c -0.381018,0.01 -0.708231,0.25421 -0.840774,0.59273 0.10428,-0.0409 0.217384,-0.0636 0.33538,-0.0636 0.508307,0 0.926045,0.41721 0.926042,0.92552 -3e-6,0.11742 -0.02252,0.23013 -0.06305,0.33383 0.345223,-0.13491 0.592206,-0.4721 0.592212,-0.86299 2e-6,-0.50832 -0.417735,-0.92553 -0.926042,-0.92553 -0.0079,0 -0.01587,-2e-4 -0.02379,0 z" />
      <path
         id="path295498"
         style="color:#000000;fill:#a8c2e1;fill-opacity:1;stroke-width:0.794878;stroke-linecap:round;stroke-linejoin:round;stroke-miterlimit:1.5;-inkscape-stroke:none"
         d="m 99.950634,385.3343 c -0.381018,0.01 -0.708231,0.25421 -0.840774,0.59273 0.10428,-0.0409 0.217384,-0.0636 0.33538,-0.0636 0.508307,0 0.92605,0.41721 0.92604,0.92552 0,0.11742 -0.0225,0.23013 -0.0631,0.33383 0.34523,-0.13491 0.59221,-0.4721 0.59221,-0.86299 1e-5,-0.50832 -0.41773,-0.92553 -0.926041,-0.92553 -0.008,0 -0.01587,-2e-4 -0.02379,0 z" />
      <path
         id="path295500"
         style="color:#000000;fill:#a8c2e1;fill-opacity:1;stroke-width:0.794878;stroke-linecap:round;stroke-linejoin:round;stroke-miterlimit:1.5;-inkscape-stroke:none"
         d="m 102.9936,385.33411 c -0.38102,0.01 -0.70823,0.25421 -0.84077,0.59273 0.10428,-0.0409 0.21738,-0.0636 0.33538,-0.0636 0.5083,0 0.92604,0.41721 0.92604,0.92552 -10e-6,0.11742 -0.0225,0.23013 -0.0631,0.33383 0.34522,-0.13491 0.5922,-0.4721 0.59221,-0.86299 0,-0.50832 -0.41774,-0.92553 -0.92604,-0.92553 -0.008,0 -0.0159,-2e-4 -0.0238,0 z" />
      <path
         id="path295502"
         style="color:#000000;fill:#a8c2e1;fill-opacity:1;stroke-width:0.794878;stroke-linecap:round;stroke-linejoin:round;stroke-miterlimit:1.5;-inkscape-stroke:none"
         d="m 106.03657,385.33411 c -0.38102,0.01 -0.70823,0.25421 -0.84077,0.59273 0.10428,-0.0409 0.21738,-0.0636 0.33538,-0.0636 0.5083,0 0.92604,0.41721 0.92604,0.92552 -1e-5,0.11742 -0.0225,0.23013 -0.0631,0.33383 0.34522,-0.13491 0.5922,-0.4721 0.59221,-0.86299 0,-0.50832 -0.41774,-0.92553 -0.92604,-0.92553 -0.008,0 -0.0159,-2e-4 -0.0238,0 z" />
      <path
         id="path302025"
         style="color:#000000;fill:#311a12;fill-opacity:1;stroke-width:0.794878;stroke-linecap:round;stroke-linejoin:round;stroke-miterlimit:1.5;-inkscape-stroke:none"
         d="m 99.189812,382.95289 c -0.149534,-0.005 -0.273668,0.11444 -0.273883,0.26407 v 0.33899 l 0.529682,0.17622 0.631189,0.008 a 0.43285076,0.43285076 0 0 1 0.42714,0.43281 v 0.63115 h 0.26562 c 0.14612,-5.9e-4 0.26411,-0.1195 0.26355,-0.26562 v -1.32188 c -7.3e-4,-0.17994 -0.17697,-0.30668 -0.34778,-0.25012 l -0.710552,0.23616 -0.709001,-0.23616 c -0.0245,-0.008 -0.0501,-0.013 -0.07596,-0.0139 z" />
      <path
         id="path295504"
         style="color:#000000;fill:#143441;fill-opacity:1;stroke-width:0.794878;stroke-linecap:round;stroke-linejoin:round;stroke-miterlimit:1.5;-inkscape-stroke:none"
         d="m 92.699255,384.27529 c -0.342744,0 -0.636439,0.22234 -0.74621,0.52917 h 13.711305 c 0.89961,0 1.85157,0.81636 1.85157,1.98437 0,0.43729 -0.13362,0.82514 -0.34778,1.13947 0.50162,-0.34116 0.87695,-0.93562 0.87695,-1.66863 0,-1.16802 -0.95196,-1.98438 -1.85157,-1.98438 z" />
    </g>
  </g>
</svg>
